<?xml version="1.0" standalone="no"?>
<!DOCTYPE svg PUBLIC "-//W3C//DTD SVG 20010904//EN"
 "http://www.w3.org/TR/2001/REC-SVG-20010904/DTD/svg10.dtd">
<svg version="1.0" xmlns="http://www.w3.org/2000/svg"
 width="512.000000pt" height="512.000000pt" viewBox="0 0 512.000000 512.000000"
 preserveAspectRatio="xMidYMid meet">

<g transform="translate(0.000000,512.000000) scale(0.100000,-0.100000)"
fill="#000000" stroke="none">
<path d="M2242 4781 c-66 -23 -117 -63 -159 -125 -45 -66 -53 -103 -53 -242
l0 -121 -77 -28 c-43 -15 -115 -44 -159 -65 l-82 -38 -78 80 c-106 107 -179
143 -284 143 -121 -1 -152 -21 -377 -247 -224 -225 -237 -246 -237 -373 0
-107 24 -155 135 -270 l86 -90 -33 -70 c-19 -38 -48 -109 -65 -156 l-31 -87
-142 -4 c-123 -3 -146 -6 -184 -26 -66 -35 -119 -88 -149 -150 l-28 -57 0
-295 0 -295 28 -57 c30 -62 83 -115 149 -150 38 -20 61 -23 184 -26 l142 -4
31 -87 c17 -47 46 -118 65 -156 l33 -70 -86 -90 c-111 -115 -135 -163 -135
-270 0 -127 13 -148 237 -373 226 -227 256 -247 377 -247 106 0 178 37 284
143 l78 80 82 -38 c45 -21 116 -50 158 -65 l76 -27 4 -141 c3 -124 6 -147 26
-185 35 -66 88 -119 150 -149 l57 -28 295 0 295 0 57 28 c62 30 115 83 150
149 20 38 23 61 26 185 l4 142 66 22 c37 12 108 41 158 64 l92 43 78 -80 c106
-106 178 -143 284 -143 121 0 151 20 377 247 206 207 227 237 239 340 8 67
-15 154 -56 212 -16 23 -60 72 -98 110 l-70 68 38 82 c21 45 50 116 65 158
l27 76 141 4 c124 3 147 6 185 26 66 35 119 88 149 150 l28 57 0 295 0 295
-28 57 c-30 62 -83 115 -149 150 -38 20 -61 23 -185 26 l-141 4 -27 76 c-15
43 -44 114 -65 158 l-38 82 80 78 c107 107 143 179 142 284 0 122 -16 146
-237 368 -225 226 -256 246 -377 247 -105 0 -178 -36 -284 -143 l-78 -80 -92
43 c-50 23 -121 52 -158 64 l-66 22 -4 142 c-3 124 -6 147 -26 185 -35 66 -88
119 -150 149 l-57 28 -280 2 c-251 3 -285 1 -333 -16z m573 -205 c57 -24 65
-54 65 -233 0 -210 -1 -208 152 -256 63 -20 175 -66 248 -103 106 -52 141 -64
164 -60 20 4 69 45 152 126 122 120 122 120 170 120 l48 0 178 -178 178 -178
0 -48 c0 -48 0 -49 -119 -170 -81 -83 -121 -131 -125 -152 -6 -26 4 -54 59
-164 36 -74 82 -185 101 -247 49 -156 44 -153 246 -153 261 0 258 3 258 -319
0 -325 3 -321 -247 -321 -210 0 -208 1 -256 -152 -20 -63 -66 -175 -103 -248
-52 -106 -64 -141 -60 -164 4 -20 45 -69 126 -152 119 -122 120 -122 120 -170
l0 -48 -172 -173 c-181 -182 -211 -203 -264 -183 -16 6 -78 60 -139 120 -60
60 -122 113 -136 119 -35 13 -58 6 -154 -45 -89 -47 -203 -92 -313 -125 -107
-31 -112 -41 -112 -242 0 -250 4 -247 -320 -247 -324 0 -320 -3 -320 247 0
210 1 208 -152 256 -63 20 -175 66 -248 103 -106 52 -141 64 -164 60 -20 -4
-69 -45 -152 -126 -122 -120 -122 -120 -170 -120 l-48 0 -178 178 -178 178 0
48 c0 48 0 49 119 170 81 83 121 131 125 152 6 26 -4 54 -59 164 -36 74 -82
185 -102 248 -48 153 -46 152 -256 152 -250 0 -247 -4 -247 320 0 324 -3 320
247 320 210 0 208 -1 256 152 20 63 66 175 103 248 52 106 64 141 60 164 -4
20 -45 69 -126 152 -119 122 -120 122 -120 170 l0 48 172 173 c181 182 211
203 264 183 16 -6 81 -63 145 -126 142 -140 148 -141 283 -69 90 48 203 93
314 126 107 31 112 41 112 242 0 178 8 209 63 232 47 21 464 21 512 1z"/>
<path d="M2385 3395 c-278 -61 -517 -263 -616 -520 -43 -111 -59 -193 -59
-311 0 -121 12 -191 52 -302 85 -234 290 -430 536 -512 84 -29 114 -33 227
-37 148 -6 223 7 350 56 263 101 472 356 524 636 14 75 14 235 0 310 -41 221
-186 436 -380 563 -74 49 -195 98 -289 118 -81 17 -265 17 -345 -1z m310 -210
c286 -59 505 -330 505 -625 0 -296 -219 -565 -510 -626 -277 -58 -571 83 -698
336 -95 189 -95 390 -2 576 132 261 418 399 705 339z"/>
</g>
</svg>
