<?xml version="1.0" standalone="no"?>
<!DOCTYPE svg PUBLIC "-//W3C//DTD SVG 20010904//EN"
 "http://www.w3.org/TR/2001/REC-SVG-20010904/DTD/svg10.dtd">
<svg version="1.0" xmlns="http://www.w3.org/2000/svg"
 width="512.000000pt" height="512.000000pt" viewBox="0 0 512.000000 512.000000"
 preserveAspectRatio="xMidYMid meet">

<g transform="translate(0.000000,512.000000) scale(0.100000,-0.100000)"
fill="#000000" stroke="none">
<path d="M3844 5109 c-73 -12 -189 -55 -259 -97 -39 -23 -132 -106 -267 -240
l-207 -206 -95 22 c-301 69 -656 66 -950 -9 l-78 -20 -202 198 c-204 201 -257
242 -376 290 -103 41 -192 56 -315 50 -128 -6 -213 -29 -324 -88 -73 -39 -74
-40 -95 -21 -52 48 -107 67 -196 67 -112 0 -145 -18 -278 -149 -125 -122 -155
-175 -155 -274 -1 -81 14 -129 57 -185 l33 -43 -24 -34 c-37 -54 -80 -168 -99
-260 -34 -168 1 -363 92 -520 27 -47 105 -134 283 -315 408 -415 437 -442 500
-466 148 -56 326 24 375 169 23 65 20 167 -5 222 -14 30 -73 98 -181 207
l-161 162 38 58 c99 150 250 316 385 426 366 295 847 456 1297 434 109 -6 322
-33 332 -43 2 -2 -27 -36 -64 -76 -86 -93 -107 -135 -113 -224 -4 -62 -1 -79
23 -133 34 -75 96 -133 167 -157 63 -21 177 -15 228 11 19 9 108 90 197 178
l162 160 53 -34 c133 -85 302 -236 413 -369 136 -164 235 -335 330 -575 26
-66 52 -126 58 -132 5 -7 26 -13 46 -13 34 0 49 13 261 228 229 232 267 280
317 402 41 103 56 192 50 315 -6 128 -29 213 -88 324 -39 73 -40 74 -21 95 48
52 67 107 67 196 0 112 -18 145 -149 278 -122 125 -175 155 -274 155 -81 1
-129 -14 -185 -57 l-43 -33 -34 24 c-128 87 -353 131 -526 102z m266 -162 c30
-8 83 -26 117 -41 l62 -28 -92 -100 c-51 -55 -102 -120 -115 -145 -18 -34 -27
-43 -40 -37 -101 42 -193 44 -272 4 -29 -15 -144 -121 -330 -305 -157 -155
-295 -288 -307 -294 -46 -23 -116 -7 -155 35 -25 29 -38 89 -27 127 6 24 96
119 346 368 363 360 382 375 524 413 68 18 217 20 289 3z m-2855 -12 c140 -29
201 -70 392 -258 l172 -170 -72 -32 c-40 -17 -99 -45 -132 -62 l-60 -31 -91
88 c-107 103 -155 131 -240 138 -57 4 -92 -3 -165 -33 -13 -5 -20 2 -30 32 -8
25 -47 73 -116 145 l-105 107 52 26 c119 60 261 78 395 50z m3433 -29 c15 -8
68 -56 119 -108 101 -104 117 -139 92 -203 -8 -19 -84 -105 -176 -199 -133
-135 -168 -166 -197 -172 -72 -13 -102 2 -198 94 -49 48 -97 100 -105 115 -18
35 -19 107 -3 138 15 26 313 319 344 336 29 17 91 16 124 -1z m-4156 -9 c14
-7 101 -84 192 -173 137 -134 166 -167 171 -198 14 -72 0 -102 -93 -198 -48
-49 -100 -97 -115 -105 -36 -18 -107 -19 -140 -1 -29 15 -318 313 -335 345
-16 30 -15 88 2 121 20 37 185 199 216 211 34 13 70 13 102 -2z m4358 -659
c83 -176 75 -374 -23 -548 -19 -34 -93 -118 -196 -223 l-166 -168 -59 136 -58
136 89 92 c105 109 126 147 131 243 3 57 0 81 -17 119 -12 27 -20 49 -19 50 2
0 23 10 47 20 25 11 84 58 140 112 53 51 97 92 99 93 2 0 16 -28 32 -62z
m-4540 -43 c59 -58 115 -103 142 -115 l46 -20 -20 -39 c-29 -58 -34 -136 -13
-207 17 -57 25 -67 315 -359 256 -258 299 -305 305 -338 11 -59 -2 -102 -40
-136 -42 -37 -72 -46 -123 -36 -32 6 -79 49 -351 318 -204 204 -328 335 -357
378 -87 132 -119 292 -90 439 17 81 67 210 82 210 4 0 51 -43 104 -95z"/>
<path d="M3414 3808 c-12 -7 -148 -125 -302 -262 -322 -285 -338 -306 -298
-399 18 -43 425 -499 460 -515 38 -17 96 -15 133 6 57 31 581 502 597 537 20
41 20 76 1 121 -12 30 -357 427 -429 493 -31 29 -127 40 -162 19z m264 -354
l191 -216 -261 -231 c-144 -128 -265 -232 -270 -232 -9 0 -378 416 -378 427 0
8 511 466 521 467 3 1 92 -96 197 -215z"/>
<path d="M4509 2847 c-32 -25 -37 -49 -28 -162 11 -146 -8 -419 -37 -518 -5
-15 -18 -7 -74 47 -85 83 -153 116 -236 116 -80 0 -143 -23 -198 -71 -65 -57
-98 -130 -98 -217 0 -112 19 -143 204 -328 l160 -162 -58 -85 c-303 -439 -777
-733 -1310 -812 -139 -20 -414 -21 -549 0 -151 23 -146 16 -71 96 83 87 108
136 114 220 6 85 -16 152 -69 213 -57 65 -130 98 -217 98 -112 0 -143 -19
-329 -204 l-162 -161 -63 43 c-296 200 -537 483 -683 805 -121 265 -185 596
-170 877 6 127 6 128 -19 153 -31 31 -70 32 -100 2 -21 -21 -25 -38 -31 -122
-13 -174 13 -443 61 -627 l15 -60 -198 -202 c-201 -204 -242 -257 -290 -376
-41 -103 -56 -192 -50 -315 6 -128 29 -213 88 -324 39 -73 40 -74 21 -95 -48
-52 -67 -107 -67 -196 0 -75 3 -91 29 -137 34 -63 214 -241 268 -266 58 -27
126 -37 188 -25 55 10 126 44 149 71 10 13 21 10 79 -23 125 -72 275 -107 418
-97 93 7 127 19 143 54 15 34 14 47 -9 76 -20 25 -22 26 -153 25 -110 -1 -143
3 -202 22 -72 22 -145 58 -145 70 0 4 43 48 95 99 55 52 104 110 116 135 l22
43 48 -18 c61 -23 150 -24 215 -3 43 15 85 53 349 315 256 254 305 298 337
304 123 23 206 -109 135 -213 -15 -21 -171 -182 -347 -356 -344 -343 -347
-347 -297 -394 14 -14 36 -22 57 -22 30 0 54 21 242 207 l208 207 58 -12 c349
-77 624 -78 951 -6 l113 25 192 -188 c105 -104 218 -206 250 -228 229 -149
514 -164 762 -40 l85 43 50 -34 c88 -59 176 -69 276 -33 49 18 76 40 169 133
133 133 157 177 157 282 0 58 -5 83 -26 126 -15 30 -36 63 -47 73 -19 18 -19
18 1 46 30 42 75 146 95 220 22 81 25 280 5 358 -45 175 -94 247 -334 488
l-201 202 13 58 c49 225 68 442 54 622 -9 117 -11 126 -37 148 -30 25 -62 29
-87 10z m-326 -681 c18 -8 173 -156 353 -337 279 -282 325 -333 356 -394 66
-128 87 -244 68 -371 -12 -77 -62 -218 -82 -230 -6 -4 -54 37 -107 89 -61 61
-113 104 -142 117 l-47 20 20 40 c29 58 34 146 13 211 -16 50 -42 79 -315 354
-256 258 -299 305 -305 338 -10 54 1 100 33 129 54 51 96 60 155 34z m-3558
-378 c4 -13 30 -71 58 -130 l50 -108 -89 -92 c-106 -110 -127 -148 -132 -244
-3 -57 0 -81 17 -119 12 -27 20 -49 19 -49 -71 -32 -113 -61 -191 -135 -52
-50 -97 -91 -100 -91 -3 0 -19 33 -36 74 -75 180 -62 367 36 536 24 41 93 121
192 222 85 87 157 158 162 158 4 0 11 -10 14 -22z m3926 -882 c25 -9 84 -62
190 -171 85 -86 159 -167 166 -179 17 -29 16 -91 -1 -124 -8 -15 -56 -68 -108
-118 -154 -149 -170 -145 -402 83 -177 174 -186 189 -171 269 9 50 172 218
230 239 49 17 51 17 96 1z m-3856 -22 c54 -25 201 -183 214 -229 21 -76 6 -99
-170 -272 -88 -87 -170 -163 -182 -170 -28 -15 -92 -16 -120 -2 -12 6 -64 52
-115 103 -98 97 -120 137 -106 199 4 22 54 80 167 196 88 92 171 171 186 178
36 17 87 16 126 -3z m3096 -345 c64 -32 159 -37 228 -10 30 11 55 20 56 18 1
-1 8 -18 15 -37 8 -19 61 -83 119 -142 l104 -108 -65 -30 c-170 -80 -356 -78
-528 6 -65 32 -99 60 -248 208 l-173 171 48 20 c26 11 86 38 133 61 l85 41 91
-87 c50 -49 111 -98 135 -111z"/>
<path d="M1575 2312 c-32 -20 -284 -240 -373 -326 -61 -59 -80 -107 -62 -162
7 -20 96 -129 226 -276 169 -192 224 -247 257 -261 75 -33 98 -20 318 176 106
96 203 184 213 195 28 32 33 114 10 150 -36 57 -435 499 -460 511 -37 17 -95
13 -129 -7z m140 -217 c37 -41 65 -78 63 -83 -1 -4 -79 -77 -173 -161 l-169
-153 -63 69 c-35 37 -67 75 -73 84 -7 13 24 45 163 167 94 84 175 152 178 152
4 0 37 -34 74 -75z m243 -274 l72 -79 -178 -157 -177 -156 -67 73 c-37 40 -66
78 -64 83 2 8 334 315 341 315 1 0 34 -36 73 -79z"/>
</g>
</svg>
