<?xml version="1.0" standalone="no"?>
<!DOCTYPE svg PUBLIC "-//W3C//DTD SVG 20010904//EN"
 "http://www.w3.org/TR/2001/REC-SVG-20010904/DTD/svg10.dtd">
<svg version="1.0" xmlns="http://www.w3.org/2000/svg"
 width="512.000000pt" height="512.000000pt" viewBox="0 0 512.000000 512.000000"
 preserveAspectRatio="xMidYMid meet">

<g transform="translate(0.000000,512.000000) scale(0.100000,-0.100000)"
fill="#000000" stroke="none">
<path d="M2421 4994 c-127 -34 -257 -134 -320 -246 l-33 -58 -204 0 c-218 0
-252 -6 -302 -53 -28 -26 -57 -80 -66 -124 l-7 -32 -307 -3 -307 -3 -63 -34
c-69 -37 -109 -79 -144 -151 l-23 -45 0 -1950 0 -1950 28 -57 c30 -62 83 -115
149 -150 l43 -23 1695 0 1695 0 43 23 c66 35 119 88 149 150 l28 57 0 1950 0
1950 -34 63 c-38 70 -69 100 -145 140 l-51 27 -306 3 -307 3 -11 42 c-15 60
-44 102 -92 134 l-42 28 -218 3 -218 3 -32 57 c-64 114 -194 213 -324 247 -73
19 -202 18 -274 -1z m276 -227 c87 -45 140 -109 173 -210 8 -25 24 -46 44 -58
28 -17 52 -19 264 -19 l232 0 0 -105 0 -105 -850 0 -850 0 0 105 0 105 233 0
c211 0 235 2 263 19 20 12 36 33 44 58 39 120 114 196 230 234 50 17 162 4
217 -24z m-1197 -549 c17 -69 85 -139 152 -156 34 -9 282 -12 911 -12 981 0
936 -3 1005 76 26 29 44 62 52 94 l12 50 270 0 c225 0 275 -3 303 -16 70 -33
65 122 65 -1958 0 -1599 -2 -1882 -14 -1911 -30 -70 101 -65 -1696 -65 -1797
0 -1666 -5 -1696 65 -12 29 -14 312 -14 1911 0 1684 2 1879 16 1909 29 61 48
65 351 65 l271 0 12 -52z"/>
<path d="M1544 3181 c-89 -54 -47 -191 57 -191 74 0 124 75 95 143 -15 38 -59
67 -98 67 -13 0 -37 -9 -54 -19z"/>
<path d="M1990 3193 c-81 -30 -90 -157 -14 -192 18 -8 251 -11 803 -11 765 0
779 0 804 20 38 30 52 80 33 123 -29 70 11 67 -843 66 -422 0 -775 -3 -783 -6z"/>
<path d="M1553 2654 c-39 -19 -67 -74 -58 -114 8 -37 48 -77 85 -85 41 -9 95
19 114 60 9 18 16 38 16 45 0 30 -34 80 -65 94 -41 20 -52 20 -92 0z"/>
<path d="M1983 2655 c-33 -14 -63 -59 -63 -95 0 -37 30 -81 65 -96 29 -12 160
-14 791 -14 838 0 806 -2 838 65 9 18 16 38 16 45 0 7 -7 27 -16 45 -32 68 1
65 -841 65 -623 -1 -764 -3 -790 -15z"/>
<path d="M1537 2110 c-38 -30 -52 -80 -33 -123 15 -37 59 -67 96 -67 37 0 81
30 96 67 29 68 -21 143 -96 143 -22 0 -48 -8 -63 -20z"/>
<path d="M1973 2118 c-57 -28 -67 -122 -17 -169 l26 -24 779 -3 c868 -3 826
-6 855 65 19 43 5 93 -33 123 -25 20 -38 20 -807 19 -519 0 -788 -4 -803 -11z"/>
<path d="M1544 1581 c-89 -54 -47 -191 57 -191 74 0 124 75 95 143 -15 38 -59
67 -98 67 -13 0 -37 -9 -54 -19z"/>
<path d="M1990 1593 c-81 -30 -90 -157 -14 -192 18 -8 251 -11 803 -11 765 0
779 0 804 20 38 30 52 80 33 123 -29 70 11 67 -843 66 -422 0 -775 -3 -783 -6z"/>
</g>
</svg>
