<?xml version="1.0" standalone="no"?>
<!DOCTYPE svg PUBLIC "-//W3C//DTD SVG 20010904//EN"
 "http://www.w3.org/TR/2001/REC-SVG-20010904/DTD/svg10.dtd">
<svg version="1.0" xmlns="http://www.w3.org/2000/svg"
 width="512.000000pt" height="512.000000pt" viewBox="0 0 512.000000 512.000000"
 preserveAspectRatio="xMidYMid meet">

<g transform="translate(0.000000,512.000000) scale(0.100000,-0.100000)"
fill="#000000" stroke="none">
<path d="M1444 4488 c-800 -462 -1095 -637 -1103 -655 -16 -34 -16 -2512 0
-2546 8 -18 303 -193 1104 -656 602 -347 1104 -631 1116 -631 12 0 420 230
908 512 1334 770 1298 749 1310 775 16 34 15 2512 0 2546 -11 24 -39 41 -729
440 -861 496 -1025 591 -1236 713 -129 75 -241 134 -255 134 -13 -1 -515 -285
-1115 -632z m2113 -115 c540 -313 983 -570 983 -573 0 -3 -123 -76 -274 -163
l-274 -158 -991 573 c-545 314 -988 575 -984 579 18 17 529 308 542 309 8 0
457 -255 998 -567z m-716 -414 c544 -314 988 -573 987 -574 -8 -7 -530 -306
-542 -311 -8 -3 -118 54 -248 129 -480 278 -866 501 -1301 752 -371 214 -445
260 -430 269 10 5 133 76 273 158 140 81 259 148 263 148 5 0 454 -257 998
-571z m-720 -411 c887 -512 989 -574 972 -586 -40 -29 -521 -302 -533 -302
-13 0 -1980 1132 -1980 1140 0 3 39 27 88 55 48 27 170 98 272 157 102 59 186
108 188 108 1 0 448 -257 993 -572z m-603 -478 l962 -555 0 -1148 0 -1149 -32
20 c-30 18 -1372 792 -1768 1020 -91 52 -171 99 -177 105 -10 7 -13 250 -13
1153 l0 1144 34 -17 c18 -10 466 -268 994 -573z m3100 -1706 c-7 -7 -452 -265
-988 -574 -536 -309 -978 -564 -982 -567 -5 -2 -8 512 -8 1144 l0 1148 283
162 282 162 5 -510 5 -511 28 -24 c54 -46 65 -40 263 157 l182 181 160 -41
c87 -23 168 -41 179 -41 11 0 32 9 47 21 l26 20 0 633 0 632 63 36 c34 20 152
89 262 152 l200 115 3 -1142 c2 -905 -1 -1144 -10 -1153z m-678 1382 l0 -514
-127 34 c-71 18 -141 34 -157 34 -24 0 -52 -22 -158 -127 l-128 -127 0 444 0
445 217 125 c119 69 244 141 277 162 34 20 64 37 69 37 4 1 7 -230 7 -513z"/>
<path d="M1462 1270 c-28 -26 -30 -90 -4 -112 19 -17 668 -391 695 -401 22 -8
66 8 83 31 20 26 16 68 -8 96 -36 39 -682 406 -716 406 -15 0 -38 -9 -50 -20z"/>
</g>
</svg>
