<?xml version="1.0" standalone="no"?>
<!DOCTYPE svg PUBLIC "-//W3C//DTD SVG 20010904//EN"
 "http://www.w3.org/TR/2001/REC-SVG-20010904/DTD/svg10.dtd">
<svg version="1.0" xmlns="http://www.w3.org/2000/svg"
 width="512.000000pt" height="512.000000pt" viewBox="0 0 512.000000 512.000000"
 preserveAspectRatio="xMidYMid meet">

<g transform="translate(0.000000,512.000000) scale(0.100000,-0.100000)"
fill="#000000" stroke="none">
<path d="M3216 4260 c-316 -80 -556 -319 -636 -635 l-18 -70 -297 0 -298 0
-37 110 c-24 67 -46 116 -60 127 -21 17 -67 18 -779 18 -848 0 -816 3 -890
-71 -107 -107 -86 -284 43 -364 l49 -30 646 -3 646 -3 335 -1012 c272 -824
340 -1017 362 -1039 25 -26 32 -28 115 -28 l88 0 0 -78 c0 -67 4 -86 33 -144
62 -126 175 -198 310 -198 83 0 122 11 192 52 102 62 162 172 164 300 l0 68
457 0 457 0 4 -82 c4 -101 34 -172 98 -236 69 -69 130 -95 230 -100 111 -5
182 20 257 91 75 70 106 138 111 243 l5 84 64 0 c58 0 68 3 94 29 l29 29 0
172 c0 178 -8 219 -45 234 -9 3 -547 6 -1195 6 l-1178 0 -36 108 c-20 59 -36
110 -36 115 0 4 420 7 933 7 1025 0 1003 -1 1093 60 54 38 97 99 118 170 14
47 16 134 16 672 0 654 -1 665 -45 682 -9 3 -88 6 -176 6 l-159 0 -6 28 c-48
221 -161 402 -327 528 -73 55 -217 127 -302 150 -96 27 -330 29 -429 4z m342
-156 c253 -52 451 -230 534 -479 20 -60 23 -90 23 -210 0 -131 -2 -146 -31
-226 -72 -203 -235 -366 -431 -434 -349 -121 -714 38 -874 379 -94 201 -73
470 51 660 160 244 449 368 728 310z m-1788 -476 c0 -31 669 -2020 685 -2038
18 -20 32 -20 1192 -20 l1173 0 0 -70 0 -70 -56 0 c-49 0 -61 4 -97 35 -117
101 -317 100 -438 -1 l-41 -34 -545 0 -545 0 -37 29 c-81 64 -118 76 -226 76
-112 0 -161 -16 -227 -74 -34 -30 -39 -31 -126 -31 l-91 0 -335 1012 c-184
557 -342 1022 -350 1033 -14 20 -29 20 -689 25 -646 5 -676 6 -696 24 -25 23
-28 72 -4 98 15 17 51 18 735 18 568 0 718 -3 718 -12z m785 -285 c11 -84 26
-154 46 -211 10 -30 19 -57 19 -59 0 -1 -112 -3 -248 -3 l-249 0 -46 148 c-26
81 -47 153 -47 160 0 9 59 12 259 12 l260 0 6 -47z m1935 -113 l0 -160 -136 0
c-112 0 -135 2 -131 14 22 57 47 156 57 225 l12 81 99 0 99 0 0 -160z m-1667
-435 l108 -106 -3 -87 -3 -87 -307 -3 -306 -2 -65 195 -65 195 267 0 267 0
107 -105z m1667 -90 l0 -195 -285 0 -285 0 0 98 0 99 58 46 c31 26 75 69 97
96 l40 50 188 1 187 0 0 -195z m-1290 -128 c61 -18 101 -22 220 -22 139 0 214
12 313 50 15 6 17 1 17 -44 l0 -51 -330 0 -330 0 0 51 c0 45 2 50 18 44 9 -3
51 -16 92 -28z m-272 -340 l3 -107 -247 2 -247 3 -34 100 c-18 54 -33 103 -33
107 0 5 125 7 278 6 l277 -3 3 -108z m822 3 l0 -110 -330 0 -330 0 0 110 0
110 330 0 330 0 0 -110z m738 40 c-3 -66 -6 -73 -41 -108 l-37 -37 -245 -3
-245 -3 0 111 0 110 286 0 286 0 -4 -70z m-1543 -944 c66 -50 92 -146 61 -219
-32 -75 -129 -128 -208 -113 -48 9 -111 56 -131 99 -21 43 -22 128 -3 165 18
34 64 78 96 91 14 6 53 10 86 8 50 -2 69 -8 99 -31z m1597 11 c133 -81 123
-265 -17 -328 -101 -46 -219 8 -255 117 -25 76 16 175 87 213 54 28 137 28
185 -2z"/>
<path d="M3598 3513 l-258 -258 -178 178 c-181 181 -195 191 -247 171 -24 -10
-47 -62 -40 -93 4 -18 77 -98 218 -239 194 -193 216 -212 247 -212 32 0 58 23
332 298 269 269 298 301 298 330 0 44 -38 82 -82 82 -30 0 -58 -25 -290 -257z"/>
</g>
</svg>
